<svg width="216" height="59" viewBox="0 0 216 59" fill="none" xmlns="http://www.w3.org/2000/svg">
<path d="M45.74 21.588V39H42.116V31.5H34.448V39H30.824V21.588H34.448V28.98H42.116V21.588H45.74ZM54.1355 26.436C55.0635 26.436 55.9075 26.584 56.6675 26.88C57.4275 27.176 58.0795 27.6 58.6235 28.152C59.1675 28.696 59.5875 29.36 59.8835 30.144C60.1795 30.928 60.3275 31.812 60.3275 32.796C60.3275 33.78 60.1795 34.668 59.8835 35.46C59.5875 36.244 59.1675 36.912 58.6235 37.464C58.0795 38.016 57.4275 38.44 56.6675 38.736C55.9075 39.032 55.0635 39.18 54.1355 39.18C53.1995 39.18 52.3475 39.032 51.5795 38.736C50.8195 38.44 50.1675 38.016 49.6235 37.464C49.0795 36.912 48.6555 36.244 48.3515 35.46C48.0555 34.668 47.9075 33.78 47.9075 32.796C47.9075 31.812 48.0555 30.928 48.3515 30.144C48.6555 29.36 49.0795 28.696 49.6235 28.152C50.1675 27.6 50.8195 27.176 51.5795 26.88C52.3475 26.584 53.1995 26.436 54.1355 26.436ZM54.1355 36.696C55.0795 36.696 55.7795 36.372 56.2355 35.724C56.6915 35.068 56.9195 34.096 56.9195 32.808C56.9195 31.528 56.6915 30.564 56.2355 29.916C55.7795 29.26 55.0795 28.932 54.1355 28.932C53.1675 28.932 52.4555 29.26 51.9995 29.916C51.5435 30.564 51.3155 31.528 51.3155 32.808C51.3155 34.096 51.5435 35.068 51.9995 35.724C52.4555 36.372 53.1675 36.696 54.1355 36.696ZM66.4447 39.192C65.8847 39.192 65.3887 39.112 64.9567 38.952C64.5247 38.784 64.1607 38.548 63.8647 38.244C63.5687 37.94 63.3447 37.572 63.1927 37.14C63.0407 36.708 62.9647 36.22 62.9647 35.676V29.004H61.8007C61.6247 29.004 61.4727 28.948 61.3447 28.836C61.2247 28.724 61.1647 28.556 61.1647 28.332V27.036L63.1447 26.676L63.8167 23.472C63.9047 23.112 64.1487 22.932 64.5487 22.932H66.2767V26.7H69.4687V29.004H66.2767V35.46C66.2767 35.804 66.3567 36.076 66.5167 36.276C66.6847 36.476 66.9207 36.576 67.2247 36.576C67.3847 36.576 67.5207 36.56 67.6327 36.528C67.7447 36.488 67.8407 36.448 67.9207 36.408C68.0007 36.36 68.0727 36.32 68.1367 36.288C68.2087 36.248 68.2807 36.228 68.3527 36.228C68.4487 36.228 68.5287 36.252 68.5927 36.3C68.6567 36.34 68.7207 36.412 68.7847 36.516L69.7807 38.1C69.3247 38.46 68.8087 38.732 68.2327 38.916C67.6567 39.1 67.0607 39.192 66.4447 39.192ZM78.9738 31.356C78.9738 31.012 78.9258 30.684 78.8298 30.372C78.7418 30.06 78.5978 29.784 78.3978 29.544C78.1978 29.304 77.9458 29.116 77.6418 28.98C77.3378 28.836 76.9738 28.764 76.5498 28.764C75.7578 28.764 75.1378 28.988 74.6898 29.436C74.2418 29.884 73.9498 30.524 73.8138 31.356H78.9738ZM73.7658 33.324C73.8698 34.484 74.1978 35.332 74.7498 35.868C75.3098 36.404 76.0378 36.672 76.9338 36.672C77.3898 36.672 77.7818 36.62 78.1098 36.516C78.4458 36.404 78.7378 36.284 78.9858 36.156C79.2418 36.02 79.4698 35.9 79.6698 35.796C79.8778 35.684 80.0818 35.628 80.2818 35.628C80.5378 35.628 80.7378 35.724 80.8818 35.916L81.8418 37.116C81.4898 37.524 81.1018 37.864 80.6778 38.136C80.2538 38.4 79.8138 38.612 79.3578 38.772C78.9018 38.924 78.4418 39.028 77.9778 39.084C77.5138 39.148 77.0658 39.18 76.6338 39.18C75.7698 39.18 74.9618 39.04 74.2098 38.76C73.4658 38.472 72.8138 38.052 72.2538 37.5C71.7018 36.94 71.2658 36.248 70.9458 35.424C70.6258 34.6 70.4658 33.644 70.4658 32.556C70.4658 31.716 70.6018 30.924 70.8738 30.18C71.1538 29.436 71.5538 28.788 72.0738 28.236C72.5938 27.684 73.2258 27.248 73.9698 26.928C74.7138 26.6 75.5538 26.436 76.4898 26.436C77.2818 26.436 78.0098 26.564 78.6738 26.82C79.3458 27.068 79.9218 27.432 80.4018 27.912C80.8898 28.392 81.2658 28.984 81.5298 29.688C81.8018 30.384 81.9378 31.18 81.9378 32.076C81.9378 32.324 81.9258 32.528 81.9018 32.688C81.8778 32.848 81.8378 32.976 81.7818 33.072C81.7258 33.168 81.6498 33.236 81.5538 33.276C81.4578 33.308 81.3338 33.324 81.1818 33.324H73.7658ZM87.329 21.108V39H84.017V21.108H87.329Z" fill="#F2A007"/>
<path d="M102.922 36.24C103.498 36.24 103.97 36.172 104.338 36.036C104.714 35.892 105.014 35.704 105.238 35.472C105.462 35.24 105.618 34.976 105.706 34.68C105.794 34.376 105.838 34.064 105.838 33.744C105.838 33.392 105.786 33.076 105.682 32.796C105.578 32.516 105.41 32.28 105.178 32.088C104.946 31.888 104.642 31.736 104.266 31.632C103.898 31.528 103.442 31.476 102.898 31.476H99.8381V36.24H102.922ZM99.8381 24.324V29.028H102.202C102.706 29.028 103.154 28.988 103.546 28.908C103.938 28.82 104.266 28.684 104.53 28.5C104.794 28.316 104.994 28.076 105.13 27.78C105.274 27.476 105.346 27.112 105.346 26.688C105.346 26.256 105.286 25.888 105.166 25.584C105.054 25.28 104.878 25.036 104.638 24.852C104.398 24.668 104.094 24.536 103.726 24.456C103.358 24.368 102.922 24.324 102.418 24.324H99.8381ZM102.418 21.588C103.586 21.588 104.582 21.7 105.406 21.924C106.238 22.14 106.914 22.452 107.434 22.86C107.962 23.26 108.346 23.748 108.586 24.324C108.826 24.9 108.946 25.544 108.946 26.256C108.946 26.656 108.886 27.04 108.766 27.408C108.654 27.776 108.474 28.124 108.226 28.452C107.986 28.772 107.674 29.064 107.29 29.328C106.906 29.592 106.45 29.816 105.922 30C107.106 30.28 107.982 30.736 108.55 31.368C109.118 32 109.402 32.82 109.402 33.828C109.402 34.564 109.258 35.248 108.97 35.88C108.69 36.512 108.278 37.06 107.734 37.524C107.19 37.988 106.518 38.352 105.718 38.616C104.926 38.872 104.014 39 102.982 39H96.2381V21.588H102.418ZM117.112 26.436C118.04 26.436 118.884 26.584 119.644 26.88C120.404 27.176 121.056 27.6 121.6 28.152C122.144 28.696 122.564 29.36 122.86 30.144C123.156 30.928 123.304 31.812 123.304 32.796C123.304 33.78 123.156 34.668 122.86 35.46C122.564 36.244 122.144 36.912 121.6 37.464C121.056 38.016 120.404 38.44 119.644 38.736C118.884 39.032 118.04 39.18 117.112 39.18C116.176 39.18 115.324 39.032 114.556 38.736C113.796 38.44 113.144 38.016 112.6 37.464C112.056 36.912 111.632 36.244 111.328 35.46C111.032 34.668 110.884 33.78 110.884 32.796C110.884 31.812 111.032 30.928 111.328 30.144C111.632 29.36 112.056 28.696 112.6 28.152C113.144 27.6 113.796 27.176 114.556 26.88C115.324 26.584 116.176 26.436 117.112 26.436ZM117.112 36.696C118.056 36.696 118.756 36.372 119.212 35.724C119.668 35.068 119.896 34.096 119.896 32.808C119.896 31.528 119.668 30.564 119.212 29.916C118.756 29.26 118.056 28.932 117.112 28.932C116.144 28.932 115.432 29.26 114.976 29.916C114.52 30.564 114.292 31.528 114.292 32.808C114.292 34.096 114.52 35.068 114.976 35.724C115.432 36.372 116.144 36.696 117.112 36.696ZM130.964 26.436C131.892 26.436 132.736 26.584 133.496 26.88C134.256 27.176 134.908 27.6 135.452 28.152C135.996 28.696 136.416 29.36 136.712 30.144C137.008 30.928 137.156 31.812 137.156 32.796C137.156 33.78 137.008 34.668 136.712 35.46C136.416 36.244 135.996 36.912 135.452 37.464C134.908 38.016 134.256 38.44 133.496 38.736C132.736 39.032 131.892 39.18 130.964 39.18C130.028 39.18 129.176 39.032 128.408 38.736C127.648 38.44 126.996 38.016 126.452 37.464C125.908 36.912 125.484 36.244 125.18 35.46C124.884 34.668 124.736 33.78 124.736 32.796C124.736 31.812 124.884 30.928 125.18 30.144C125.484 29.36 125.908 28.696 126.452 28.152C126.996 27.6 127.648 27.176 128.408 26.88C129.176 26.584 130.028 26.436 130.964 26.436ZM130.964 36.696C131.908 36.696 132.608 36.372 133.064 35.724C133.52 35.068 133.748 34.096 133.748 32.808C133.748 31.528 133.52 30.564 133.064 29.916C132.608 29.26 131.908 28.932 130.964 28.932C129.996 28.932 129.284 29.26 128.828 29.916C128.372 30.564 128.144 31.528 128.144 32.808C128.144 34.096 128.372 35.068 128.828 35.724C129.284 36.372 129.996 36.696 130.964 36.696ZM142.547 21.108V31.26H143.099C143.307 31.26 143.471 31.232 143.591 31.176C143.711 31.112 143.831 31 143.951 30.84L146.687 27.192C146.823 27.008 146.975 26.868 147.143 26.772C147.319 26.676 147.539 26.628 147.803 26.628H150.827L147.275 31.14C146.995 31.516 146.671 31.812 146.303 32.028C146.487 32.156 146.647 32.304 146.783 32.472C146.919 32.64 147.051 32.828 147.179 33.036L151.007 39H148.031C147.775 39 147.555 38.96 147.371 38.88C147.187 38.792 147.035 38.64 146.915 38.424L144.131 33.876C144.019 33.684 143.903 33.56 143.783 33.504C143.663 33.448 143.483 33.42 143.243 33.42H142.547V39H139.235V21.108H142.547ZM155.745 26.628V39H152.433V26.628H155.745ZM156.141 23.112C156.141 23.392 156.085 23.652 155.973 23.892C155.861 24.132 155.709 24.344 155.517 24.528C155.333 24.712 155.113 24.856 154.857 24.96C154.609 25.064 154.341 25.116 154.053 25.116C153.781 25.116 153.521 25.064 153.273 24.96C153.033 24.856 152.821 24.712 152.637 24.528C152.453 24.344 152.305 24.132 152.193 23.892C152.089 23.652 152.037 23.392 152.037 23.112C152.037 22.832 152.089 22.572 152.193 22.332C152.305 22.084 152.453 21.868 152.637 21.684C152.821 21.5 153.033 21.356 153.273 21.252C153.521 21.148 153.781 21.096 154.053 21.096C154.341 21.096 154.609 21.148 154.857 21.252C155.113 21.356 155.333 21.5 155.517 21.684C155.709 21.868 155.861 22.084 155.973 22.332C156.085 22.572 156.141 22.832 156.141 23.112ZM161.643 28.068C161.891 27.828 162.147 27.608 162.411 27.408C162.683 27.208 162.967 27.036 163.263 26.892C163.567 26.748 163.891 26.636 164.235 26.556C164.587 26.476 164.967 26.436 165.375 26.436C166.047 26.436 166.643 26.552 167.163 26.784C167.683 27.016 168.119 27.34 168.471 27.756C168.831 28.172 169.099 28.668 169.275 29.244C169.459 29.82 169.551 30.452 169.551 31.14V39H166.251V31.14C166.251 30.452 166.091 29.92 165.771 29.544C165.451 29.16 164.979 28.968 164.355 28.968C163.891 28.968 163.455 29.068 163.047 29.268C162.639 29.468 162.251 29.748 161.883 30.108V39H158.571V26.628H160.611C161.027 26.628 161.303 26.82 161.439 27.204L161.643 28.068ZM176.796 32.352C177.476 32.352 177.976 32.18 178.296 31.836C178.624 31.492 178.788 31.048 178.788 30.504C178.788 29.936 178.624 29.492 178.296 29.172C177.976 28.844 177.476 28.68 176.796 28.68C176.116 28.68 175.616 28.844 175.296 29.172C174.976 29.492 174.816 29.936 174.816 30.504C174.816 31.04 174.976 31.484 175.296 31.836C175.624 32.18 176.124 32.352 176.796 32.352ZM179.928 39.504C179.928 39.288 179.86 39.112 179.724 38.976C179.588 38.84 179.404 38.732 179.172 38.652C178.948 38.572 178.68 38.516 178.368 38.484C178.056 38.444 177.724 38.416 177.372 38.4C177.02 38.376 176.656 38.356 176.28 38.34C175.904 38.324 175.536 38.296 175.176 38.256C174.896 38.424 174.664 38.624 174.48 38.856C174.304 39.08 174.216 39.336 174.216 39.624C174.216 39.824 174.26 40.008 174.348 40.176C174.444 40.344 174.6 40.488 174.816 40.608C175.032 40.728 175.316 40.82 175.668 40.884C176.02 40.956 176.46 40.992 176.988 40.992C177.532 40.992 177.992 40.956 178.368 40.884C178.744 40.812 179.048 40.708 179.28 40.572C179.512 40.444 179.676 40.288 179.772 40.104C179.876 39.92 179.928 39.72 179.928 39.504ZM183.216 27.036V28.248C183.216 28.44 183.16 28.592 183.048 28.704C182.944 28.816 182.768 28.9 182.52 28.956L181.512 29.16C181.648 29.552 181.716 29.972 181.716 30.42C181.716 31.036 181.588 31.592 181.332 32.088C181.084 32.576 180.74 32.996 180.3 33.348C179.86 33.692 179.34 33.96 178.74 34.152C178.14 34.336 177.492 34.428 176.796 34.428C176.356 34.428 175.944 34.392 175.56 34.32C175.224 34.528 175.056 34.756 175.056 35.004C175.056 35.236 175.168 35.404 175.392 35.508C175.624 35.612 175.924 35.688 176.292 35.736C176.668 35.776 177.092 35.804 177.564 35.82C178.044 35.828 178.528 35.852 179.016 35.892C179.512 35.932 179.996 36.004 180.468 36.108C180.948 36.204 181.372 36.368 181.74 36.6C182.116 36.824 182.416 37.124 182.64 37.5C182.872 37.876 182.988 38.36 182.988 38.952C182.988 39.504 182.852 40.04 182.58 40.56C182.308 41.08 181.912 41.544 181.392 41.952C180.88 42.36 180.248 42.688 179.496 42.936C178.744 43.184 177.888 43.308 176.928 43.308C175.976 43.308 175.148 43.216 174.444 43.032C173.748 42.856 173.168 42.616 172.704 42.312C172.248 42.016 171.908 41.672 171.684 41.28C171.46 40.888 171.348 40.48 171.348 40.056C171.348 39.504 171.516 39.036 171.852 38.652C172.188 38.268 172.652 37.96 173.244 37.728C172.932 37.552 172.68 37.324 172.488 37.044C172.304 36.756 172.212 36.384 172.212 35.928C172.212 35.56 172.344 35.172 172.608 34.764C172.88 34.356 173.296 34.016 173.856 33.744C173.224 33.408 172.724 32.96 172.356 32.4C171.988 31.832 171.804 31.172 171.804 30.42C171.804 29.804 171.928 29.248 172.176 28.752C172.432 28.256 172.784 27.836 173.232 27.492C173.68 27.14 174.208 26.872 174.816 26.688C175.424 26.504 176.084 26.412 176.796 26.412C177.852 26.412 178.784 26.62 179.592 27.036H183.216Z" fill="#F5F5F5"/>
<path d="M184.47 37.26C184.47 36.996 184.518 36.748 184.614 36.516C184.718 36.276 184.858 36.072 185.034 35.904C185.21 35.728 185.414 35.592 185.646 35.496C185.886 35.392 186.146 35.34 186.426 35.34C186.698 35.34 186.954 35.392 187.194 35.496C187.434 35.592 187.642 35.728 187.818 35.904C187.994 36.072 188.13 36.276 188.226 36.516C188.33 36.748 188.382 36.996 188.382 37.26C188.382 37.532 188.33 37.784 188.226 38.016C188.13 38.248 187.994 38.452 187.818 38.628C187.642 38.796 187.434 38.928 187.194 39.024C186.954 39.12 186.698 39.168 186.426 39.168C186.146 39.168 185.886 39.12 185.646 39.024C185.414 38.928 185.21 38.796 185.034 38.628C184.858 38.452 184.718 38.248 184.614 38.016C184.518 37.784 184.47 37.532 184.47 37.26Z" fill="#048ABF"/>
</svg>
