<svg width="21" height="21" viewBox="0 0 21 21" fill="none" xmlns="http://www.w3.org/2000/svg">
    <path
        d="M11.5 15.575C11.6333 15.575 11.7583 15.554 11.875 15.512C11.9917 15.47 12.1 15.3993 12.2 15.3L15 12.5C15.1833 12.3167 15.3293 12.1 15.438 11.85C15.5467 11.6 15.6007 11.3333 15.6 11.05C15.6 10.4833 15.4 10 15 9.6C14.6 9.2 14.1167 9 13.55 9C13.2333 9 12.9207 9.09167 12.612 9.275C12.3033 9.45833 11.9327 9.76667 11.5 10.2C11 9.73334 10.6083 9.41667 10.325 9.25C10.0417 9.08334 9.75001 9 9.45001 9C8.88334 9 8.40001 9.2 8.00001 9.6C7.60001 10 7.40001 10.4833 7.40001 11.05C7.40001 11.3333 7.45434 11.6 7.56301 11.85C7.67167 12.1 7.81734 12.3167 8.00001 12.5L10.8 15.3C10.9 15.4 11.0083 15.471 11.125 15.513C11.2417 15.555 11.3667 15.5757 11.5 15.575ZM11.35 20.5C11.0667 20.5 10.8 20.4457 10.55 20.337C10.3 20.2283 10.0833 20.0827 9.90001 19.9L1.10001 11.1C0.916673 10.9167 0.770673 10.7 0.662006 10.45C0.553339 10.2 0.499339 9.93333 0.500006 9.65V2.5C0.500006 1.95 0.696006 1.479 1.08801 1.087C1.48001 0.695002 1.95067 0.499335 2.50001 0.500002H9.65001C9.93334 0.500002 10.2 0.554335 10.45 0.663002C10.7 0.771668 10.9167 0.917335 11.1 1.1L19.9 9.925C20.2833 10.3083 20.475 10.7793 20.475 11.338C20.475 11.8967 20.2833 12.3673 19.9 12.75L12.75 19.9C12.5667 20.0833 12.354 20.2293 12.112 20.338C11.87 20.4467 11.616 20.5007 11.35 20.5ZM11.325 18.5L18.475 11.35L9.65001 2.5H2.50001V9.65L11.325 18.5ZM5.00001 6.5C5.41667 6.5 5.77101 6.354 6.06301 6.062C6.35501 5.77 6.50067 5.416 6.50001 5C6.50001 4.58334 6.35401 4.229 6.06201 3.937C5.77001 3.645 5.41601 3.49934 5.00001 3.5C4.58334 3.5 4.22901 3.646 3.93701 3.938C3.64501 4.23 3.49934 4.584 3.50001 5C3.50001 5.41667 3.64601 5.771 3.93801 6.063C4.23001 6.355 4.58401 6.50067 5.00001 6.5Z"
        fill="#000" />
</svg>